<svg height="256" width="256" xmlns="http://www.w3.org/2000/svg" xmlns:xlink="http://www.w3.org/1999/xlink"><clipPath id="a"><rect height="246.47722" ry="35.860416" width="246.9823" x="-63.459389" y="44.360722"/></clipPath><clipPath id="b"><rect height="246.47722" ry="35.860416" width="246.9823" x="-62.745098" y="-6.956548"/></clipPath><clipPath id="c"><rect height="246.47722" ry="35.860416" width="246.9823" x="4.040607" y="4.472021"/></clipPath><clipPath id="d"><rect height="246.47722" ry="35.860416" width="246.9823" x="90.112038" y="-4.099409"/></clipPath><clipPath id="e"><rect height="246.47722" ry="35.860416" width="246.9823" x="11.540613" y="-15.527979"/></clipPath><clipPath id="f"><rect height="246.47722" ry="35.860416" width="246.9823" x="52.612041" y="-3.385119"/></clipPath><clipPath id="g"><rect height="246.47722" ry="35.860416" width="246.9823" x="4.040614" y="4.472022"/></clipPath><clipPath id="h"><rect height="246.47722" ry="35.860416" width="246.9823" x="4.04061" y="4.47202"/></clipPath><clipPath id="i"><rect height="246.47722" ry="35.860416" width="246.9823" x="4.04061" y="4.47202"/></clipPath><clipPath id="j"><rect height="246.47722" ry="35.860416" width="246.9823" x="4.04061" y="4.47202"/></clipPath><clipPath id="k"><rect height="246.47722" ry="35.860416" width="246.9823" x="4.04061" y="4.47202"/></clipPath><clipPath id="l"><rect height="246.47722" ry="35.860416" width="246.9823" x="4.04061" y="4.47202"/></clipPath><clipPath id="m"><rect height="246.47722" ry="35.860416" width="246.9823" x="4.04061" y="4.47202"/></clipPath><clipPath id="n"><rect height="246.47722" ry="35.860416" width="246.9823" x="4.04061" y="4.47202"/></clipPath><clipPath id="o"><rect height="246.47722" ry="35.860416" width="246.9823" x="4.04061" y="4.47202"/></clipPath><clipPath id="p"><rect height="246.47722" ry="35.860416" width="246.9823" x="4.04061" y="4.47202"/></clipPath><clipPath id="q"><rect height="246.47722" ry="35.860416" width="246.9823" x="4.040613" y="4.472021"/></clipPath><clipPath id="r"><rect height="246.47722" ry="35.860416" width="246.9823" x="4.04061" y="4.47202"/></clipPath><clipPath id="s"><rect height="246.47722" ry="35.860416" width="246.9823" x="4.04061" y="4.47202"/></clipPath><clipPath id="t"><rect height="246.47722" ry="35.860416" width="246.9823" x="4.04061" y="4.47202"/></clipPath><clipPath id="u"><rect height="246.47722" ry="35.860416" width="246.9823" x="4.04061" y="4.47202"/></clipPath><clipPath id="v"><rect height="246.47722" ry="35.860416" width="246.9823" x="4.04061" y="4.47202"/></clipPath><clipPath id="w"><rect height="246.47722" ry="35.860416" width="246.9823" x="4.04061" y="4.47202"/></clipPath><clipPath id="x"><rect height="246.47722" ry="35.860416" width="246.9823" x="4.04061" y="4.47202"/></clipPath><clipPath id="y"><rect height="246.47722" ry="35.860416" width="246.9823" x="4.04061" y="4.47202"/></clipPath><clipPath id="z"><rect height="246.47722" ry="35.860416" width="246.9823" x="4.04061" y="4.47202"/></clipPath><clipPath id="A"><rect height="246.47722" ry="35.860416" width="246.9823" x="4.04061" y="4.47202"/></clipPath><clipPath id="B"><rect height="246.47722" ry="35.860416" width="246.9823" x="4.04061" y="4.47202"/></clipPath><clipPath id="C"><rect height="246.47722" ry="35.860416" width="246.9823" x="4.04061" y="4.47202"/></clipPath><clipPath id="D"><rect height="246.47722" ry="35.860416" width="246.9823" x="4.04061" y="4.47202"/></clipPath><clipPath id="E"><rect height="246.47722" ry="35.860416" width="246.9823" x="4.04061" y="4.47202"/></clipPath><clipPath id="F"><rect height="246.47722" ry="35.860416" width="246.9823" x="4.04061" y="4.47202"/></clipPath><clipPath id="G"><rect height="246.47722" ry="35.860416" width="246.9823" x="4.04061" y="4.47202"/></clipPath><clipPath id="H"><rect height="246.47722" ry="35.860416" width="246.9823" x="4.04061" y="4.47202"/></clipPath><clipPath id="I"><rect height="246.47722" ry="35.860416" width="246.9823" x="4.04061" y="4.47202"/></clipPath><clipPath id="J"><rect height="246.47722" ry="35.860416" width="246.9823" x="4.04061" y="4.47202"/></clipPath><clipPath id="K"><rect height="246.47722" ry="35.860416" width="246.9823" x="4.04061" y="4.47202"/></clipPath><clipPath id="L"><rect height="246.47722" ry="35.860416" width="246.9823" x="4.04061" y="4.47202"/></clipPath><clipPath id="M"><rect height="246.47722" ry="35.860416" width="246.9823" x="4.04061" y="4.47202"/></clipPath><clipPath id="N"><rect height="246.47722" ry="35.860416" width="246.9823" x="4.04061" y="4.47202"/></clipPath><clipPath id="O"><rect height="246.47722" ry="35.860416" width="246.9823" x="4.04061" y="4.47202"/></clipPath><clipPath id="P"><rect height="246.47722" ry="35.860416" width="246.9823" x="4.04061" y="4.47202"/></clipPath><clipPath id="Q"><rect height="246.47722" ry="35.860416" width="246.9823" x="4.04061" y="4.47202"/></clipPath><clipPath id="R"><rect height="246.47722" ry="35.860416" width="246.9823" x="4.04061" y="4.47202"/></clipPath><clipPath id="S"><rect height="246.47722" ry="35.860416" width="246.9823" x="4.04061" y="4.47202"/></clipPath><clipPath id="T"><rect height="246.47722" ry="35.860416" width="246.9823" x="4.04061" y="4.47202"/></clipPath><clipPath id="U"><rect height="246.47722" ry="35.860416" width="246.9823" x="4.04061" y="4.47202"/></clipPath><clipPath id="V"><rect height="246.47722" ry="35.860416" width="246.9823" x="4.04061" y="4.47202"/></clipPath><clipPath id="W"><rect height="246.47722" ry="35.860416" width="246.9823" x="4.04061" y="4.47202"/></clipPath><clipPath id="X"><rect height="246.47722" ry="35.860416" width="246.9823" x="4.04061" y="4.47202"/></clipPath><clipPath id="Y"><rect height="246.47722" ry="35.860416" width="246.9823" x="4.04061" y="4.47202"/></clipPath><clipPath id="Z"><rect height="246.47722" ry="35.860416" width="246.9823" x="4.04061" y="4.47202"/></clipPath><clipPath id="aa"><rect height="246.47722" ry="35.860416" width="246.9823" x="4.04061" y="4.47202"/></clipPath><clipPath id="ab"><rect height="246.47722" ry="35.860416" width="246.9823" x="4.04061" y="4.47202"/></clipPath><clipPath id="ac"><rect height="246.47722" ry="35.860416" width="246.9823" x="4.04061" y="4.47202"/></clipPath><clipPath id="ad"><rect height="246.47722" ry="35.860416" width="246.9823" x="4.04061" y="4.47202"/></clipPath><rect height="246.47722" ry="35.860416" width="246.9823" x="4.04061" y="4.47202"/><g fill="#013157"><path clip-path="url(#q)" d="m127.27922 127.43267a82.049469 82.049469 0 1 1 -164.098941 0 82.049469 82.049469 0 1 1 164.098941 0z" opacity=".5" transform="translate(-.000003 -.000001)"/><path clip-path="url(#p)" d="m105.05586 21.392071a39.14341 39.14341 0 1 1 -78.286817 0 39.14341 39.14341 0 1 1 78.286817 0z" opacity=".5"/><path clip-path="url(#o)" d="m230.81985 99.426353a39.39595 39.39595 0 1 1 -78.7919 0 39.39595 39.39595 0 1 1 78.7919 0z" opacity=".5"/><path clip-path="url(#n)" d="m148.49242 28.210602a38.890873 38.890873 0 1 1 -77.781746 0 38.890873 38.890873 0 1 1 77.781746 0z" opacity=".5"/><path clip-path="url(#m)" d="m55.053312 214.58374a39.901024 39.901024 0 1 1 -79.802047 0 39.901024 39.901024 0 1 1 79.802047 0z" opacity=".5"/><path clip-path="url(#l)" d="m272.74118 29.220755a39.39595 39.39595 0 1 1 -78.7919 0 39.39595 39.39595 0 1 1 78.7919 0z" opacity=".5"/><path clip-path="url(#k)" d="m228.79955 15.583696a39.39595 39.39595 0 1 1 -78.79191 0 39.39595 39.39595 0 1 1 78.79191 0z" opacity=".5"/><path clip-path="url(#j)" d="m262.63966 19.624306a40.911179 40.911179 0 1 1 -81.82235 0 40.911179 40.911179 0 1 1 81.82235 0z" opacity=".5"/><path clip-path="url(#i)" d="m74.751291 66.596397a96.974648 96.974648 0 1 1 -193.949291 0 96.974648 96.974648 0 1 1 193.949291 0z" opacity=".5"/><path clip-path="url(#h)" d="m193.44421 116.85149a39.14341 39.14341 0 1 1 -78.28682 0 39.14341 39.14341 0 1 1 78.28682 0z" opacity=".5"/><path clip-path="url(#g)" d="m193.44421-21.791948a39.39595 39.39595 0 1 1 -78.7919 0 39.39595 39.39595 0 1 1 78.7919 0z" opacity=".5" transform="translate(-.000003 -.000001)"/><path clip-path="url(#f)" d="m193.44421-21.791948a39.39595 39.39595 0 1 1 -78.7919 0 39.39595 39.39595 0 1 1 78.7919 0z" opacity=".5" transform="translate(-48.571433 7.857139)"/><path clip-path="url(#e)" d="m193.44421-21.791948a39.39595 39.39595 0 1 1 -78.7919 0 39.39595 39.39595 0 1 1 78.7919 0z" opacity=".5" transform="translate(-7.500003 19.999999)"/><path clip-path="url(#d)" d="m193.44421-21.791948a39.39595 39.39595 0 1 1 -78.7919 0 39.39595 39.39595 0 1 1 78.7919 0z" opacity=".5" transform="translate(-86.07143 8.571429)"/><path clip-path="url(#c)" d="m193.44421 62.808331a39.14341 39.14341 0 1 1 -78.28682 0 39.14341 39.14341 0 1 1 78.28682 0z" opacity=".5" transform="translate(.000003 -.000001)"/><path clip-path="url(#b)" d="m230.81985 99.426353a39.39595 39.39595 0 1 1 -78.7919 0 39.39595 39.39595 0 1 1 78.7919 0z" opacity=".5" transform="translate(66.78571 11.428568)"/><path clip-path="url(#a)" d="m230.81985 99.426353a39.39595 39.39595 0 1 1 -78.7919 0 39.39595 39.39595 0 1 1 78.7919 0z" opacity=".5" transform="translate(67.5 -39.888702)"/></g><g fill="#fff"><path d="m68.185296 21.77088a2.2728431 2.2728431 0 1 1 -4.545686 0 2.2728431 2.2728431 0 1 1 4.545686 0z"/><path d="m68.185296 21.77088a2.2728431 2.2728431 0 1 1 -4.545686 0 2.2728431 2.2728431 0 1 1 4.545686 0z" transform="translate(43.214286 6.071432)"/><path d="m68.185296 21.77088a2.2728431 2.2728431 0 1 1 -4.545686 0 2.2728431 2.2728431 0 1 1 4.545686 0z" transform="translate(-20.714285 106.07143)"/><path d="m68.185296 21.77088a2.2728431 2.2728431 0 1 1 -4.545686 0 2.2728431 2.2728431 0 1 1 4.545686 0z" transform="translate(125.35714 78.571431)"/><path d="m68.185296 21.77088a2.2728431 2.2728431 0 1 1 -4.545686 0 2.2728431 2.2728431 0 1 1 4.545686 0z" transform="translate(123.57143 -6.428568)"/><path d="m68.185296 21.77088a2.2728431 2.2728431 0 1 1 -4.545686 0 2.2728431 2.2728431 0 1 1 4.545686 0z" transform="translate(155 -2.142854)"/><path d="m68.185296 21.77088a2.2728431 2.2728431 0 1 1 -4.545686 0 2.2728431 2.2728431 0 1 1 4.545686 0z" transform="translate(167.5 6.785718)"/><path d="m68.185296 21.77088a2.2728431 2.2728431 0 1 1 -4.545686 0 2.2728431 2.2728431 0 1 1 4.545686 0z" transform="translate(-50.912453 193.51483)"/></g><g fill="none" stroke="#fff"><path clip-path="url(#ad)" d="m66.071428 21.71429-20.714285 107.14285"/><path clip-path="url(#ac)" d="m109.28571 27.428576 44.28572 35.357142"/><path clip-path="url(#ab)" d="m191.07143 100.28572-48.92857-51.07143"/><path clip-path="url(#aa)" d="m66.071428 22.07143 43.571432 6.071429"/><path clip-path="url(#Z)" d="m45.357143 127.78572 87.142857-81.071433"/><path clip-path="url(#Y)" d="m45.714285 126.35715-30.714285 88.92856"/><path clip-path="url(#X)" d="m191.07143 100.64286-28.57143 13.57143"/><path clip-path="url(#W)" d="m161.78571 116.35714-116.428567 11.42857-56.785714 37.85715"/><path clip-path="url(#V)" d="m44.642857 127.78572-62.142857-57.857147"/><path clip-path="url(#U)" d="m66.428571 22.07143-87.142857 46.071428"/><path clip-path="url(#T)" d="m109.28571 27.785716 10.35715 29.285714"/><path clip-path="url(#S)" d="m66.071428 22.428573 44.285712 29.642857"/><path clip-path="url(#R)" d="m190.71428 99.928572 70 10.714288"/><path clip-path="url(#Q)" d="m233.57143 29.928573 22.85714 27.142857"/><path clip-path="url(#P)" d="m221.07143 19.57143 12.5 10.357143"/><path clip-path="url(#O)" d="m189.64286 15.642859-30 42.857142"/><path clip-path="url(#N)" d="m221.07143 19.57143-61.07143 41.428571"/><path clip-path="url(#M)" d="m66.071428 21.714287-4.285714-27.4999997"/><path clip-path="url(#L)" d="m190 15.642859 31.42857 4.285714"/><path clip-path="url(#K)" d="m65.714285 22.07143 10.714286-30.3571427"/><path clip-path="url(#J)" d="m109.64286 28.500001-27.500003-31.7857137"/><path clip-path="url(#I)" d="m189.64286 15.285716-56.42858 34.642857"/><path clip-path="url(#H)" d="m233.57143 28.857144 10-16.785714"/><path clip-path="url(#G)" d="m108.92857 27.785716 28.57143-28.9285716"/><path clip-path="url(#F)" d="m189.64286 15.285716 4.64285-16.4285716"/><path clip-path="url(#E)" d="m233.57143 29.57143 19.64285-2.857143"/><path clip-path="url(#D)" d="m109.28571 27.428573 18.92857-33.2142857"/><path clip-path="url(#C)" d="m189.64286 15.642859 31.78571-14.2857146"/><path clip-path="url(#B)" d="m108.92857 27.785716-15.357142-35.0000001"/><path clip-path="url(#A)" d="m221.42857 19.57143-43.57143-26.0714284"/><path clip-path="url(#z)" d="m108.92857 28.142859 45-35.3571431"/><path clip-path="url(#y)" d="m126.78571 45.285716 21.07143-48.5714287"/><path clip-path="url(#x)" d="m233.57143 29.57143 25.35714 6.428571"/><path clip-path="url(#w)" d="m221.78571 19.928573-20-26.0714285"/><path clip-path="url(#v)" d="m234.28571 29.928573-32.14285-39.2857142"/><path clip-path="url(#u)" d="m221.07143 19.928573 33.92857.357143"/><path clip-path="url(#t)" d="m189.28571 16.000001-37.5-16.42857085"/><path clip-path="url(#s)" d="m220.71428 19.928573 21.42858-18.5714286"/><path clip-path="url(#r)" d="m189.28571 16.000001-15.71428-19.9999994"/></g><g fill="#fff"><path d="m80.8125 41.34375v175.75h20.71875v-53.53125h43.4375c15.10986 0 27.25-12.14014 27.25-27.25v-67.6875c0-15.109864-12.14014-27.28125-27.25-27.28125zm20.71875 19.9375h6.0625 18.84375 19.03125c3.35775 0 6.0625 2.704752 6.0625 6.0625v69.46875c0 3.35775-2.70475 6.0625-6.0625 6.0625h-19.03125-18.84375-6.0625v-6.0625-69.46875z"/><path d="m159.09375 187.78125c-8.97463 0-16.25 7.27537-16.25 16.25s7.27537 16.25 16.25 16.25 16.25-7.27537 16.25-16.25-7.27537-16.25-16.25-16.25zm-4.8125 8.9375 12.5 7.5-12.5 7.125z"/><path d="m194.8125 187.78125c-8.97463 0-16.25 7.27537-16.25 16.25s7.27537 16.25 16.25 16.25 16.25-7.27537 16.25-16.25-7.27537-16.25-16.25-16.25zm-5.53125 10.71875h11.4375v11.4375h-11.4375z"/></g></svg>